<svg version="1.2" xmlns="http://www.w3.org/2000/svg" viewBox="0 0 1638 262" width="281" height="45">
	<title>team-logo</title>
	<style>
		.s0 { fill: #47d5b1 } 
		.s1 { fill: #a25eb2 } 
		.s2 { fill: #ffffff } 
	</style>
	<g id="Background">
		<path id="Path 1" class="s0" d="m56.5 15h761.5c666.4 0 762.2 0.2 767 1.5c3 0.8 8.4 2.9 12 4.7c4.1 2 8.9 5.6 13 9.7c3.6 3.7 7.9 9.3 9.7 12.6c1.7 3.3 4 8.7 5 12c1.7 5.6 1.8 10.9 1.8 76c0 65.4-0.1 70.4-1.9 76c-1 3.3-3.1 8.5-4.6 11.5c-1.5 3-5.2 8.2-8.2 11.5c-3.1 3.3-8.4 7.7-11.9 9.8c-3.5 2.1-9.6 4.8-20.4 8.2h-761c-735.9 0-761.2-0.1-767-1.8c-3.3-1-8.7-3.3-12-5c-3.3-1.8-8.9-6.1-12.5-9.7c-4-4-7.8-9-9.8-13c-1.8-3.6-3.9-9-4.7-12c-1.2-4.6-1.5-17.3-1.5-146.5l2.8-8c1.5-4.4 4.3-10.3 6.2-13c1.9-2.8 5-6.6 7-8.5c1.9-2 5.7-5.1 8.5-7c2.7-1.9 8.6-4.7 13-6.2z" />
		<path id="Path 2" class="s1" d="m1015.5 67.4c57.6 0.2 64.6 0.4 70 2c3.3 1 8.7 3.1 12 4.7c3.3 1.6 8.6 4.9 11.8 7.4c3.1 2.5 7.7 7.1 10.2 10.2c2.5 3.2 5.9 8.5 7.5 11.8c1.5 3.3 3.6 8.9 4.5 12.5c1 3.8 1.7 10.3 1.7 15.5c0.1 5.1-0.7 11.8-1.6 15.5c-0.9 3.6-3.3 9.9-5.3 14c-2.7 5.4-6 9.7-11.8 15.6c-6.4 6.5-9.7 8.9-16.5 12.1c-4.7 2.3-11 4.7-14 5.4c-4.3 1.1-19.7 1.4-73.5 1.4c-62.9 0-68.5-0.1-74.5-1.8c-3.6-1-9.6-3.5-13.5-5.5c-4.8-2.4-9.6-6.2-15-11.7c-5.5-5.4-9.3-10.2-11.7-15c-2-3.9-4.4-9.9-5.4-13.5c-1-3.9-1.8-10.3-1.8-16c0-5.2 0.5-12 1.3-15c0.7-3 3-9.1 5.1-13.5c2.4-5 6.1-10.5 9.7-14.5c3.3-3.6 8.6-8.3 11.9-10.5c3.2-2.1 9.2-5.2 13.2-6.7c3.9-1.5 10.5-3.2 14.5-3.7c3.9-0.5 36-0.8 71.2-0.7z" />
		<path id="Path 3" class="s2" d="m302 93v69h-8l-0.2-33.8c-0.1-18.6 0.2-34.2 0.7-34.5c0.5-0.4 2.3-0.7 7.5-0.7zm194.1-0.1l7.4 0.6l0.5 68.5h-3.5c-3 0-3.6-0.4-4-2.8c-0.5-2.5-0.6-2.6-2.3-1c-0.9 0.9-3.4 2.4-5.4 3.2c-2.1 0.9-5.6 1.6-7.8 1.6c-2.2 0-5.7-0.7-7.7-1.6c-2.1-0.8-4.6-2.3-5.7-3.2c-1-0.9-2.8-3.5-3.9-5.7c-1.8-3.3-2.2-5.7-2.2-14.5c0-8.9 0.4-11.1 2.3-14.8c1.2-2.3 3.9-5.4 5.9-7c2.7-2 5.1-2.8 9.2-3.1c3.1-0.2 6.8-0.1 8.4 0.3c1.5 0.3 4.1 1.7 8.7 5.6l0.1-13.1zm47.3 0.7l0.5 25.5l3-2.5c1.7-1.4 4.3-2.8 5.8-3.2c1.5-0.3 5.2-0.4 8.3-0.2c4 0.3 6.5 1.1 9 2.9c1.9 1.4 4.6 4.8 5.9 7.5c2.1 4.1 2.5 6.4 2.5 13.5c0 5.6-0.5 10-1.7 13c-0.9 2.4-3.2 5.9-5 7.6c-1.8 1.7-4.8 3.6-6.8 4.2c-1.9 0.7-5.2 1.2-7.2 1.2c-2.1 0-5-0.5-6.5-1.1c-1.5-0.6-3.9-2.2-7.8-5.9l-0.7 3c-0.6 2.5-1.3 3-6.8 3l-0.1-33.9c-0.1-18.6 0.2-34.1 0.7-34.5c0.5-0.4 2.2-0.6 6.9-0.1zm287.5-0.5v69h-11l-0.1-33.9c-0.1-18.6 0.2-34.1 0.6-34.5c0.5-0.3 3-0.6 10.5-0.6zm24.5 0.5l0.5 68.5h-11l-0.1-33.9c-0.1-18.6 0.2-34.1 0.7-34.5c0.5-0.4 2.9-0.6 9.9-0.1zm415.5-0.5v12.5c0 6.8 0.3 12.5 0.5 12.5c0.3 0 2-1 3.8-2.3c2.4-1.7 5-2.3 10.2-2.5c5.5-0.3 7.8 0.1 10.5 1.6c2 1 4.4 3.4 5.5 5.3c1.8 3 2.1 5.4 2.5 41.9h-8v-15.8c0-8.7-0.4-17.3-0.9-19.2c-0.5-2-2.1-4.3-3.5-5.3c-1.4-1-4.4-1.7-6.6-1.7c-2.2 0-5.3 0.6-7 1.5c-1.6 0.8-3.7 2.9-4.6 4.7c-1.3 2.5-1.8 7.2-2.9 35.8h-7.5l-0.1-33.9c-0.1-18.6 0.2-34.1 0.6-34.5c0.5-0.3 2.4-0.6 7.5-0.6zm-395.4 2c2.4 0 3.9 0.6 4.9 2.2c0.9 1.2 1.5 3 1.5 4c0 1-0.9 2.7-2 3.8c-1.1 1.1-3.1 2-4.5 2c-1.3 0-3.4-0.9-4.5-2c-1.1-1.1-2-3.1-2-4.5c-0.1-1.3 0.6-3.1 1.5-4c0.9-0.8 3.2-1.5 5.1-1.5zm319.4 2v7.5h-8.2c-6.9 0-8.8 0.3-11.5 2.2c-1.8 1.2-4.1 3.9-5.2 6c-1 2.1-2.5 5.9-3.2 8.5c-0.8 2.6-1 5-0.6 5.2c0.4 0.3 2-0.4 3.5-1.5c1.5-1.1 4.8-2.4 7.2-2.9c2.5-0.4 6.5-0.4 9 0.1c2.5 0.6 5.7 1.8 7 2.8c1.4 0.9 3.5 3.7 4.8 6.2c1.6 3.1 2.2 6.1 2.2 10.4c0 3.6-0.7 7.5-1.8 10c-1 2.2-3.1 5.1-4.7 6.5c-1.6 1.4-4.8 3.2-7 3.9c-2.2 0.7-6.2 1.1-9 0.9c-3.4-0.2-6.5-1.3-9.3-3.1c-2.7-1.8-5.1-4.6-6.9-8c-2.3-4.5-2.7-6.8-3.1-15.7c-0.2-6.2 0.1-12.8 0.8-16c0.7-3.1 2.4-7.7 3.9-10.4c1.4-2.7 4.2-6 6.1-7.5c2-1.4 5.1-3.1 7-3.8c2-0.7 7-1.3 19-1.3zm-1098 1h13.8c7.5 0 15.3 0.4 17.2 0.9c2 0.5 5.8 2.4 8.5 4.3c3.9 2.5 5.8 4.7 8.3 9.8c3 5.9 3.3 7.3 3.3 15.5c0 5.9-0.6 10.8-1.8 14.4c-1 3-3.4 7.2-5.3 9.5c-2 2.3-6 5.1-9 6.5c-4.9 2.2-7.1 2.5-35 3.1v-32zm554 0h11v64h-11v-32zm678 0h48v7h-20v57h-8v-57h-20v-3.5zm-586.6 4.2c3 0.3 3.1 0.4 3.6 10.8l13.5 0.5v8l-13.5 0.5v14c0 12.6 0.2 14.2 2 16c1.7 1.6 2.9 1.9 12 1v4c0 3.4-0.4 4.1-2.7 5c-1.5 0.6-5.3 1-8.4 0.8q-5.7-0.3-8.5-2.4c-1.6-1.2-3.4-3.2-4.1-4.5c-0.8-1.6-1.2-7.7-1.3-33.9h-3.5c-3.1 0-3.5-0.3-3.5-2.8c0-2.1 0.8-3.1 3.5-4.5c2.6-1.3 3.8-2.8 4.7-5.5c0.6-2.1 1.5-4.6 2.1-5.5c0.6-1.3 1.8-1.8 4.1-1.5zm498 0c1.8 0.2 2.2 1 2.6 10.8l13.5 0.5l0.5 6.5h-14v15.2c0 14.4 0.1 15.4 2.3 18.1c2 2.6 2.7 2.9 11.7 2.2v3.2c0 2.6-0.4 3.4-2.2 3.7c-1.3 0.3-4 0.5-6 0.5c-2.1 0.1-5.2-0.6-7-1.4c-1.9-0.8-4-2.9-5-5c-1.5-2.9-1.8-6.3-1.8-36.5h-3.5c-2.9 0-3.5-0.4-3.5-2.3c0-1.6 0.9-2.6 3.3-3.4c2.7-1 3.5-2.1 4.6-6c0.8-2.7 1.7-5.2 1.9-5.6c0.3-0.5 1.4-0.7 2.6-0.5zm-536.4 10.1c3.1 0.2 7 1.2 8.8 2.3c1.8 1 4.2 3.7 5.3 5.9c1.7 3.5 1.9 6.2 1.9 41.5h-11l0.1-15.8c0-8.7-0.5-17.2-1-19c-0.6-1.8-2-3.7-3.1-4.2c-1.1-0.6-3.7-1.1-5.7-1.1c-2.3 0-4.9 0.8-6.5 2c-1.6 1.2-3.2 3.7-3.8 5.8c-0.5 2.1-1 10.2-1 32.3h-11v-49h4.5c4.3 0 4.6 0.1 5.7 6.5l2.7-2.7c1.4-1.4 4-3.1 5.6-3.7c1.7-0.6 5.5-1 8.5-0.8zm86.8 0.2c2.9 0.3 6.5 1.1 8 1.9c1.5 0.7 3.7 2.4 4.9 3.7c1.1 1.3 2.8 3.7 3.6 5.4c0.8 1.6 1.8 6 2.7 16.5h-32v2.5c0 1.3 0.8 3.8 1.8 5.5c0.9 1.6 3.2 3.7 5 4.5c1.8 0.8 4.9 1.5 7 1.5c2 0 6-0.7 8.7-1.5c2.8-0.8 5.4-1.5 5.8-1.5c0.4 0 0.7 1.9 0.8 4.2c0 3.7-0.4 4.4-2.8 5.6c-1.5 0.7-5.9 1.6-9.8 1.9c-4.8 0.4-8.7 0-12.5-1c-3.7-1.1-6.7-2.8-9.2-5.4c-2.1-2.1-4.4-5.4-5-7.3c-0.7-2-1.2-7.1-1.2-11.5c-0.1-6.8 0.4-8.9 2.7-13.5c1.5-3.1 4.1-6.5 6-7.8c1.8-1.3 4.8-2.7 6.7-3.2c2-0.5 5.9-0.7 8.8-0.5zm-614.5 0.5c3.1 0 7.2 0.6 9 1.3c1.8 0.7 4.4 2.6 5.8 4.2c1.4 1.6 3.1 4.5 3.7 6.5c0.7 1.9 1.4 5.9 1.7 14.5l-33 0.5l0.8 3.7c0.4 2.1 1.5 4.9 2.5 6.3c1.1 1.3 3.4 3.2 5.3 4.2c1.9 1 5 1.8 6.9 1.8c2 0 5.8-0.7 8.5-1.5c2.8-0.8 5.6-1.5 6.3-1.5c0.8 0 1.1 1.1 1 3.2c-0.2 2.5-0.9 3.6-3.3 4.6c-1.6 0.8-5.2 1.7-8 1.9c-2.7 0.3-7 0.2-9.5-0.1c-2.4-0.4-6.4-1.9-8.8-3.4c-3-2-5-4.3-6.9-8.2c-2.1-4.4-2.7-7-2.7-12.5c0-3.9 0.6-8.8 1.4-11c0.7-2.2 2.3-5.5 3.5-7.3c1.3-1.8 4-4.1 6.1-5.2c2.5-1.2 6.1-2 9.7-2zm30 0.5l6.8 19c3.8 10.4 6.9 19.2 6.9 19.5c0.1 0.2 3.2-7.9 6.9-18c3.7-10.2 7.1-19.1 7.4-19.8c0.4-0.7 2.3-1.2 4.2-1.2c2 0 3.7 0.3 4 0.7c0.2 0.4-2 7.3-5.1 15.3c-3 7.9-7 18.6-12.4 33l-9.5-0.1l-8.7-23.2c-4.8-12.8-8.7-23.8-8.7-24.5c0-1 1.3-1.3 8.2-0.7zm59-0.5c3.1 0 7.2 0.6 9 1.3c1.8 0.7 4.4 2.6 5.8 4.2c1.4 1.6 3.1 4.5 3.7 6.5c0.7 1.9 1.4 5.9 1.7 14.5l-33 0.5l0.8 3.7c0.4 2.1 1.5 4.9 2.5 6.3c1.1 1.3 3.4 3.2 5.3 4.2c1.9 1 5 1.8 6.9 1.8c2 0 5.8-0.7 8.5-1.5c2.8-0.8 5.6-1.5 6.3-1.5c0.8 0 1.1 1.1 1 3.2c-0.2 2.5-0.9 3.6-3.3 4.6c-1.6 0.8-5.2 1.7-8 1.9c-2.7 0.3-7 0.2-9.5-0.1c-2.4-0.4-6.4-1.9-8.8-3.4c-3-2-5-4.3-6.9-8.2c-2.1-4.4-2.7-7-2.7-12.5c0-3.9 0.6-8.8 1.4-11c0.7-2.2 2.3-5.5 3.5-7.3c1.3-1.8 4-4.1 6.1-5.2c2.5-1.2 6.1-2 9.7-2zm68.5 0c4.1 0 7.5 0.6 10 1.8c2 1 5 3.3 6.5 5c1.5 1.7 3.5 5.7 4.4 8.9c1.1 4 1.4 7.7 1 12.3c-0.3 3.9-1.5 8.2-2.9 11c-1.3 2.4-4.2 5.7-6.3 7.3c-2.8 2-5.7 2.9-10 3.4c-4.3 0.4-7.2 0.2-10.5-1.1c-2.4-0.9-5.8-2.9-7.4-4.4c-1.6-1.5-3.7-4.5-4.7-6.7c-0.9-2.2-2-6.1-2.4-8.5c-0.3-2.5-0.1-7.2 0.5-10.5c0.6-3.5 2.2-7.7 3.8-10c1.6-2.3 4.7-5 7.2-6.3c3.3-1.6 6.3-2.3 10.8-2.2zm31.4-0.2l3.2 0.3c2.7 0.3 3.2 0.8 4.1 7.1l2-2.2c1.1-1.2 3.3-2.9 4.8-3.6c1.5-0.8 5.2-1.4 8.2-1.4c3.5 0 7 0.7 9.5 2c2.2 1.1 4.9 3.2 5.9 4.7c1 1.5 2.4 4.6 3.1 6.8c0.7 2.2 1.3 7.1 1.3 11c0 3.8-0.7 8.9-1.4 11.4c-0.8 2.4-2.8 6-4.5 8c-1.7 2-4.7 4.1-7 4.8c-2.1 0.7-5.6 1.2-7.6 1.2c-2.1 0.1-5.2-0.5-7-1.3c-1.8-0.7-3.9-2.1-4.8-3.1c-1.3-1.7-1.5-0.5-2.5 25l-7.5 0.5l0.1-35.6zm70.4 0.2c4.6 0 7 0.5 10.2 2.4c3.1 1.9 4.9 3.9 6.8 7.8c1.7 3.7 2.5 6.9 2.5 16.7h-33l0.6 3.3c0.3 1.8 1.4 4.6 2.4 6.2c1 1.7 2.8 3.6 3.9 4.3c1.1 0.7 4 1.5 6.3 1.8c2.6 0.4 6.7 0 10.5-1c3.5-0.9 6.5-1.6 6.8-1.6c0.2 0 0.5 1.5 0.5 3.3c0 2.6-0.5 3.5-2.8 4.6c-1.5 0.7-5.7 1.6-9.2 1.9c-4.2 0.3-8.3 0-11.5-0.8c-3.4-1-6.3-2.7-9.1-5.4c-2.2-2.3-4.5-5.9-5.2-8.1c-0.7-2.2-1.2-6.9-1.2-10.5c0-3.6 0.6-8.2 1.2-10.4c0.7-2.1 2.6-5.7 4.3-7.8c1.7-2.2 4.6-4.6 6.5-5.4c1.9-0.7 6.2-1.3 9.5-1.3zm148.8-0.1c1.7 0 3.7 0.5 4.2 1.2c0.6 0.7 3.9 9 7.4 18.3c3.5 9.4 6.5 17.7 6.8 18.5c0.4 1.4 0.6 1.4 1 0c0.3-0.8 3.1-8.9 6.3-18c3.2-9.1 6.1-17.3 6.4-18.2c0.4-1.3 1.7-1.8 4.3-1.8c2.1 0 4 0.2 4.3 0.5c0.2 0.3-3.9 12.4-9.3 26.8c-5.4 14.4-11.1 29-12.8 32.5c-2 4.2-4 6.8-6.2 8.1c-1.8 1-4.9 2.2-7 2.5c-2 0.3-4.9 0.4-6.2 0.1c-2.1-0.4-2.5-1-2.5-4c0-3.3 0.1-3.4 2.7-2.9c1.5 0.3 4.2 0 6-0.5c2.6-0.9 3.9-2.3 9.5-13.6l-9.5-24c-5.3-13.2-9.3-24.3-9.1-24.7c0.3-0.4 1.9-0.8 3.7-0.8zm285.7 0h11v49h-11v-24.5zm530.2 0.1c3.2-0.1 7.2 0.5 9 1.3c1.8 0.7 4.4 2.6 5.8 4.2c1.4 1.6 3.1 4.5 3.8 6.4c0.6 1.9 1.3 6 1.7 14.5l-33 0.5l0.7 3.8c0.4 2 1.6 4.8 2.6 6.2c1 1.4 3.4 3.3 5.2 4.3c1.9 0.9 5 1.7 7 1.7c1.9 0 5.7-0.6 8.5-1.5c2.7-0.8 5.5-1.5 6.2-1.5c0.8 0 1.2 1.2 1 3.3c-0.2 2.5-0.9 3.5-3.2 4.6c-1.7 0.8-5.3 1.6-8 1.9c-2.8 0.3-7.1 0.2-9.5-0.1c-2.5-0.4-6.5-1.9-8.8-3.4c-3.1-2-5.1-4.4-7-8.3c-2.1-4.3-2.6-6.9-2.6-12.5c0-3.8 0.6-8.8 1.3-11c0.7-2.2 2.3-5.4 3.6-7.2c1.2-1.8 3.9-4.2 6.1-5.2c2.4-1.3 6-2 9.6-2zm46.8 0c4.3-0.1 7.6 0.5 9.9 1.7c1.9 0.9 4.4 3 5.5 4.5c1.9 2.6 2.1 4.4 2.6 42.7h-3.5c-3.1 0-3.5-0.3-3.5-2.5c0-1.4-0.5-2.7-1-3c-0.6-0.3-1.2 0.1-1.4 0.8c-0.2 0.7-2.3 2.2-4.7 3.5c-2.7 1.3-6.3 2.2-9.2 2.2c-2.6 0-6.2-0.6-8-1.3c-1.8-0.8-4.1-2.4-5.2-3.6c-1.5-1.7-2.1-4-2.3-8.7c-0.2-6 0-6.6 3-9.8c2.1-2.1 5.2-3.9 8.8-5c3-0.9 8.5-1.6 12.2-1.6c6.6 0 6.8-0.1 6.8-2.5c0-1.4-0.5-3.7-1.1-5.2c-0.6-1.5-1.9-3.3-2.8-4c-0.9-0.7-3.8-1.2-6.4-1.2c-2.6-0.1-6.5 0.7-8.8 1.7c-2.6 1.1-4.3 1.4-4.9 0.7c-0.5-0.5-1.2-2.1-1.5-3.5c-0.6-2.2-0.2-2.6 4.1-4.2c2.7-0.9 7.8-1.7 11.4-1.7zm32.9 0.1c2 0.3 2.6 1 2.8 3.1c0.2 1.5 0.6 2.7 1 2.7c0.4 0 2-1.2 3.6-2.7c2.3-2.3 3.9-2.8 9-3.2c4.6-0.2 7.2 0.1 10.1 1.5c2.1 1.1 4.2 2.7 4.7 3.7c0.8 1.6 1.3 1.4 5-1.5c3.6-2.9 4.9-3.3 11.2-3.6c5.9-0.2 7.8 0.1 10.4 1.8c1.8 1.1 4 3.5 5 5.3c1.3 2.6 1.7 6.8 2.3 41.7h-9v-18.2c0-18.2 0-18.3-2.5-21c-2-2.2-3.4-2.8-7-2.8c-3.5 0-5.2 0.6-7.6 2.8c-1.8 1.6-3.4 4.3-4 6.7c-0.5 2.2-0.9 10.4-0.9 32.5h-8v-17.5c0-12.7-0.4-18.2-1.4-20.2c-0.7-1.5-2.1-3.1-3-3.5c-0.9-0.4-3.2-0.8-5.1-0.8c-2 0-4.9 0.8-6.5 1.8c-1.6 0.9-3.5 2.8-4.2 4.2c-0.8 1.6-1.4 8.5-1.8 36h-8l-0.2-23.8c-0.1-13.1 0.2-24.2 0.7-24.6c0.5-0.3 2-0.5 3.4-0.4zm-275.9 20.8h23v7h-23v-3.5zm-266.5-36.9c4.1-0.1 8.9 0.6 11.6 1.5c4.4 1.6 4.7 1.9 4.2 4.8c-0.2 1.7-0.6 3.3-0.9 3.6c-0.3 0.3-3.8-0.3-7.7-1.4c-4.7-1.2-8.6-1.6-11-1.2c-2 0.3-4.9 1.6-6.3 2.9c-1.9 1.6-2.6 3.2-2.7 5.7c0 1.9 0.5 4.5 1.1 5.8c0.7 1.3 3.9 3.5 7.9 5.2c3.7 1.7 9.2 4.3 12.1 5.8c3 1.5 6.4 4 7.5 5.6c1.5 1.9 2.3 4.6 2.5 8.5c0.2 4.4-0.2 6.5-2 9.6c-1.6 2.8-3.9 4.8-7.3 6.5c-4.5 2.2-6.2 2.5-15.5 2.4c-5.8 0-11.8-0.6-13.3-1.2c-2.3-1-2.7-1.8-2.7-5.2c0-3.3 0.2-3.9 1.7-3.4c1 0.3 4.9 1.3 8.8 2.1c4.5 0.9 8.6 1.1 11.5 0.7c2.4-0.4 5.6-1.7 7-2.9c1.3-1.2 2.8-3.3 3.2-4.8c0.5-1.7 0.2-3.9-0.7-6.2c-1.2-2.7-2.8-4-7.3-6.1c-3.1-1.4-8.5-3.9-12-5.5c-4.6-2.1-6.8-3.8-8.4-6.6c-1.2-2.1-2.4-5.6-2.6-7.8c-0.3-2.2 0-5.7 0.6-7.7c0.7-2.2 2.5-4.8 4.4-6.3c1.8-1.3 4.6-2.9 6.3-3.4c1.6-0.5 6.1-0.9 10-1zm35.8 5.1c1.9 0.3 2.2 1.1 2.7 11.8h14v6h-14l-0.1 15.3c0 14.4 0.1 15.4 2.3 18.1c2 2.6 2.8 2.9 11.7 2.1l0.1 3.3c0 3-0.3 3.3-3.8 3.9c-2 0.3-5.5 0.3-7.7 0c-2.6-0.4-5.1-1.7-10-6.7l-0.5-36h-3.5c-3 0-3.5-0.3-3.5-2.2c-0.1-1.7 0.8-2.6 3.2-3.5c2.7-1 3.5-2 4.7-6c0.7-2.6 1.6-5.1 1.8-5.6c0.3-0.4 1.5-0.7 2.6-0.5zm118 0c1.9 0.3 2.2 1 2.7 11.8h14v6h-14v16c0 15.3 0.1 16.1 2.2 18.2c1.8 1.7 3.2 2.1 11.7 1.3l0.1 3.3c0 2.5-0.5 3.3-2.3 3.7c-1.2 0.3-3.9 0.5-6 0.5c-2 0-5.4-0.8-7.4-1.7c-2-1-4.3-3.1-5.2-4.8c-1.2-2.3-1.6-7-2.1-36.5h-3c-2.5 0-3-0.4-3-2.2c-0.1-1.7 0.8-2.6 3.2-3.5c2.3-0.8 3.5-2 3.9-4c0.4-1.5 1.2-4 1.9-5.6c0.8-2.1 1.7-2.7 3.3-2.5zm-74.6 10.9c3.5 0 7.8 0.6 9.8 1.4c1.9 0.8 4.4 3 5.5 4.8c1.8 2.9 2 5 2 42.7h-2.8c-2.3 0.1-2.9-0.5-4.2-6.5l-2.8 2.8c-1.5 1.5-4.3 3.1-6.2 3.7c-2 0.6-5.2 1-7.3 1c-2 0-5.2-0.6-7-1.3c-1.8-0.8-4-2.2-5-3.3c-1-1-2.2-3.7-2.7-5.9c-0.6-2.4-0.6-5.4-0.1-7.5c0.5-1.9 2.4-4.9 4.2-6.5c2.1-2 5.3-3.6 8.6-4.3c2.9-0.6 8-1.2 17.3-1.2v-4.5c0-3.7-0.5-4.8-2.8-6.5c-1.8-1.4-4.3-2-7.2-2c-2.5 0-6.3 0.7-8.5 1.6c-3.8 1.5-4.1 1.5-5.3-0.2c-0.7-1-1.3-2.6-1.4-3.5c-0.1-1.1 1.4-2.1 4.7-3.2c2.8-0.8 7.8-1.6 11.2-1.6zm54.5-0.1c5.5 0 5.7 0.1 5.3 2.3c-0.3 1.2-0.5 3-0.5 4c0 1.4-0.7 1.6-3.8 1.2c-2.5-0.4-4.8 0-7.2 1.2c-1.9 1-4.5 3.4-5.8 5.3c-2.1 3.3-2.3 4.5-2.2 35h-9v-48l3.7 0.3c3.5 0.2 3.8 0.5 4.3 3.7c0.5 3 0.8 3.3 1.5 1.6c0.6-1.1 2.5-3 4.5-4.3c2.6-1.7 4.9-2.3 9.2-2.3z" />
		<path id="Path 4" class="s0" d="m105 105h7.8c4.7 0 9.6 0.6 12.7 1.7c2.8 1 6.4 3.1 8 4.8c1.7 1.7 3.7 5.2 4.5 8c0.8 2.8 1.4 7.9 1.3 11.5c0 4.2-0.8 8.1-2 11c-1.1 2.5-3.1 5.5-4.4 6.7c-1.3 1.2-4.2 2.9-6.4 3.9c-2.2 0.9-7.9 1.9-21.5 2.9v-25.3zm71.3 15c2.4 0 5.2 0.8 6.6 1.8c1.4 1 3.1 3.2 3.8 5c0.7 1.8 1.3 3.9 1.3 4.8c0 1.2-2 1.5-12 1.5c-11.5 0-12-0.1-11.5-2c0.3-1.1 0.7-3 1-4c0.3-1.1 1.9-3.2 3.6-4.5c2.2-1.8 4.3-2.6 7.2-2.6zm89 0c2.4 0 5.2 0.8 6.6 1.8c1.4 1 3.1 3.2 3.8 5c0.7 1.8 1.3 3.9 1.3 4.8c0 1.2-2 1.5-12 1.5c-11.5 0-12-0.1-11.5-2c0.3-1.1 0.7-3 1-4c0.3-1.1 1.9-3.2 3.6-4.5c2.2-1.8 4.3-2.6 7.2-2.6zm68.2 0.1c2.2 0 5.4 0.8 7.2 2c1.8 1.1 4 3.5 4.8 5.5c0.8 1.9 1.5 6.4 1.5 10.2c0 4.6-0.7 8.1-2 11c-1.2 2.6-3.2 4.8-5 5.8c-1.7 0.8-4.2 1.5-5.8 1.5c-1.5 0-4.1-0.5-5.7-1c-1.7-0.6-4.1-2.7-5.5-4.7c-2-2.9-2.6-5.2-2.8-10.8c-0.3-4.7 0.1-8.4 1.2-11.3c1-2.7 2.8-5 4.8-6.2c1.9-1.2 5-2 7.3-2zm52.3-0.1c3.2 0 5.6 0.6 7.4 2c1.6 1.1 3.5 4 4.4 6.3c1.1 2.9 1.5 6.4 1.2 11.3c-0.3 5.3-1 7.8-2.8 10.7c-1.4 2-3.5 4.1-4.8 4.7c-1.2 0.6-3.6 1.1-5.2 1.1c-1.7 0-4.4-0.7-6-1.5c-1.7-0.9-3.8-3-4.7-4.8c-0.9-1.8-1.8-6.2-2.1-9.7c-0.2-3.6 0.1-8.5 0.7-10.8c0.7-2.7 2.2-5.2 4.2-6.7c2.3-1.9 4.3-2.6 7.7-2.6zm48.9 0.1c2.4 0 5.2 0.4 6.3 1c1.1 0.5 2.7 2.3 3.5 4c0.8 1.6 1.5 4.1 1.5 8h-11.5c-11.3 0-11.5-0.1-11.5-2.3c0-1.2 1-3.7 2.2-5.5c1.1-1.8 2.8-3.7 3.7-4.2c0.9-0.6 3.5-1 5.8-1zm48.5 0c3.9 0 5.3 0.5 7.7 2.7c2 1.9 3.2 4.5 4.1 8.8c0.7 3.5 0.9 8 0.5 11c-0.4 2.7-1.3 6.2-2.1 7.7c-0.8 1.5-2.9 3.5-4.7 4.4c-2.2 1.1-4.6 1.4-7.7 1c-2.8-0.3-5.4-1.4-6.8-2.9c-1.2-1.2-2.8-3.8-3.4-5.7c-0.6-2-1-6.5-1-10c0.1-4.7 0.8-7.7 2.4-10.7c1.2-2.2 3.1-4.5 4.2-5.1c1.2-0.6 4.2-1.1 6.8-1.2zm74 0c2.1 0 4.9 0.5 6.4 1.2c1.4 0.7 3.4 3 4.4 5.3c1.3 2.5 2 6.1 2 10c0 3.3-0.2 7.3-0.5 9c-0.3 1.6-1.8 4.5-3.3 6.3c-2.1 2.6-3.7 3.4-7.2 3.9c-3.1 0.3-5.5 0-7.8-1.1c-1.7-0.9-3.9-3-4.7-4.6c-0.8-1.7-1.8-5.6-2.1-8.8c-0.4-3.2-0.2-7.9 0.5-10.7c0.6-2.8 2.1-6 3.3-7.2c1.3-1.1 3-2.3 3.8-2.6c0.8-0.3 3.2-0.6 5.2-0.7zm843.1-0.1c2.4 0 5.2 0.8 6.6 1.8c1.4 1 3.1 3.2 3.8 5c0.7 1.8 1.3 3.9 1.3 4.8c0 1.2-2 1.5-12 1.5c-11.5 0-12-0.1-11.5-2c0.3-1.1 0.7-3 1-4c0.3-1.1 1.9-3.2 3.6-4.5c2.2-1.8 4.3-2.6 7.2-2.6zm-611.8 1.1c2.5 0 4.3 0.8 6.5 3c1.7 1.7 3 4 3 8h-20l0.5-2.8c0.3-1.5 1.9-4 3.5-5.5c2.1-1.9 4.1-2.7 6.5-2.7zm391.2 7c1.3 0 3.8 0.5 5.5 1.3c2.4 0.9 3.8 2.5 5 5.5c1 2.3 1.8 5.5 1.8 7.2c0 1.6-0.7 4.5-1.5 6.5c-0.8 1.9-3 4.3-4.8 5.4c-1.7 1.1-4.6 2-6.2 2c-1.7 0-4.5-0.9-6.3-2c-1.8-1.1-4.1-3.8-5.2-6.2c-1.1-2.3-2-5.5-2-7c0-1.5 0.7-4.1 1.5-5.7c0.9-1.9 3.2-3.8 5.7-5c2.4-1.1 5.3-2 6.5-2zm277.3 11l-0.6 4.7c-0.3 2.6-1.2 5.8-2 7c-0.8 1.2-3 2.9-4.9 3.8c-1.9 0.8-5.1 1.5-7 1.5c-2.4 0-4.3-0.8-6-2.5c-1.4-1.4-2.5-3.7-2.5-5c0-1.4 1-3.7 2.2-5c1.3-1.4 3.9-2.9 5.8-3.4c1.9-0.5 6.1-1 15-1.1z" />
		<path id="Path 5" class="s1" d="m1026 139v4c0 2.2-0.6 5.2-1.4 6.8c-0.7 1.5-3 3.5-5 4.5c-2 0.9-5.1 1.7-6.8 1.7c-1.8 0.1-4.5-0.8-6.1-2c-1.9-1.4-2.7-2.9-2.7-5c0-1.7 1-4.1 2.2-5.6c1.3-1.4 3.9-2.9 5.8-3.4c1.9-0.4 5.9-0.8 14-1z" />
	</g>
</svg>